<?xml version="1.0" standalone="no"?>
<!DOCTYPE svg PUBLIC "-//W3C//DTD SVG 20010904//EN"
 "http://www.w3.org/TR/2001/REC-SVG-20010904/DTD/svg10.dtd">
<svg version="1.0" xmlns="http://www.w3.org/2000/svg"
 width="700.000000pt" height="700.000000pt" viewBox="0 0 700.000000 700.000000"
 preserveAspectRatio="xMidYMid meet">
<metadata>
Created by potrace 1.14, written by Peter Selinger 2001-2017
</metadata>
<g transform="translate(0.000000,700.000000) scale(0.100000,-0.100000)"
fill="#000000" stroke="none">
<path d="M3447 6939 c-111 -17 -48 42 -1738 -1648 -1252 -1252 -1601 -1606
-1618 -1643 -44 -94 -44 -202 0 -296 32 -69 3192 -3229 3261 -3261 94 -44 202
-44 296 0 69 32 3229 3192 3261 3261 44 94 44 202 0 296 -17 37 -364 389
-1593 1620 -864 865 -1592 1589 -1618 1608 -74 55 -162 77 -251 63z m1383
-2114 l1325 -1325 -1328 -1328 -1327 -1327 -1327 1327 -1328 1328 1325 1325
c729 729 1327 1325 1330 1325 3 0 601 -596 1330 -1325z"/>
<path d="M3271 5336 l179 -324 0 -365 0 -366 -47 -6 c-189 -25 -270 -71 -288
-165 -10 -57 10 -92 93 -157 l23 -18 -45 -32 c-103 -73 -94 -168 22 -243 l23
-15 -48 -35 c-65 -48 -84 -99 -58 -154 11 -22 38 -53 63 -70 l43 -31 -23 -15
c-116 -74 -125 -170 -22 -243 l45 -32 -23 -18 c-83 -65 -103 -100 -93 -157 18
-94 99 -140 288 -165 l47 -6 0 -370 0 -369 -175 0 -175 0 0 -50 0 -50 400 0
400 0 0 50 0 50 -175 0 -175 0 -2 417 -3 418 -115 6 c-230 12 -292 86 -136
166 l48 25 102 -27 c117 -32 301 -45 358 -26 54 18 83 55 83 106 0 51 -29 88
-84 107 -75 25 -267 6 -404 -41 l-55 -19 -58 32 c-98 55 -98 77 0 132 l57 31
62 -19 c169 -53 342 -64 417 -25 52 26 73 59 66 106 -6 38 -28 66 -71 89 -49
27 -215 21 -340 -13 -147 -40 -143 -40 -205 -2 -42 25 -55 39 -55 57 0 18 13
32 55 57 62 38 58 38 205 -2 123 -33 290 -40 340 -13 51 27 70 56 70 103 0 80
-60 115 -198 115 -83 0 -188 -18 -284 -48 l-63 -20 -62 38 c-64 38 -81 66 -55
89 8 6 38 24 67 40 l53 29 54 -19 c137 -47 328 -66 404 -40 55 18 84 54 84
106 0 51 -29 88 -83 106 -57 19 -241 6 -358 -26 l-102 -27 -48 25 c-156 80
-94 154 136 166 l115 6 5 420 5 420 158 285 c88 157 167 300 178 318 l18 32
-408 0 -409 0 179 -324z m179 52 c0 -100 -2 -179 -4 -177 -3 4 -162 293 -185
337 l-12 22 101 0 100 0 0 -182z m252 90 c-28 -51 -73 -133 -101 -183 l-51
-90 0 183 0 182 101 0 101 0 -50 -92z m83 -1532 c18 -13 18 -14 -3 -25 -27
-14 -163 -13 -227 3 l-50 12 55 11 c83 16 203 16 225 -1z m-8 -287 c27 -10 28
-11 8 -26 -16 -12 -42 -14 -131 -10 -129 5 -178 21 -99 32 28 4 55 8 60 10 24
8 136 4 162 -6z m9 -293 c18 -14 18 -15 -11 -26 -32 -13 -186 -7 -240 9 l-30
8 25 6 c55 13 68 15 151 16 59 1 91 -3 105 -13z m-1 -290 c18 -13 18 -14 -3
-25 -11 -6 -49 -11 -83 -11 -63 0 -194 19 -186 26 23 23 244 31 272 10z"/>
<path d="M3180 1750 l0 -50 320 0 320 0 0 50 0 50 -320 0 -320 0 0 -50z"/>
<path d="M3260 1565 l0 -45 240 0 240 0 0 45 0 45 -240 0 -240 0 0 -45z"/>
<path d="M3350 1385 l0 -45 150 0 150 0 0 45 0 45 -150 0 -150 0 0 -45z"/>
<path d="M3420 1205 l0 -45 80 0 80 0 0 45 0 45 -80 0 -80 0 0 -45z"/>
</g>
</svg>
