<?xml version="1.0" encoding="utf-8"?>
<!-- Generator: Adobe Illustrator 26.0.3, SVG Export Plug-In . SVG Version: 6.00 Build 0)  -->
<svg version="1.1" id="Layer_1" xmlns="http://www.w3.org/2000/svg" xmlns:xlink="http://www.w3.org/1999/xlink" x="0px" y="0px"
	 viewBox="0 0 443.8 292.6" style="enable-background:new 0 0 443.8 292.6;" xml:space="preserve">
<style type="text/css">
	.st0{fill:none;stroke:#0E0E0E;stroke-miterlimit:10;}
	.st1{font-family:'Geneva';}
	.st2{font-size:24.3532px;}
	.st3{fill:none;stroke:#1C1C1C;stroke-miterlimit:10;}
	.st4{fill:#161616;}
</style>
<g>
	<line class="st0" x1="35.9" y1="205.5" x2="35.9" y2="196.7"/>
	<line class="st0" x1="35.9" y1="117" x2="35.9" y2="125.8"/>
	<path class="st0" d="M61,136.2c13.8,13.8,13.8,36.3,0,50.1s-36.3,13.8-50.1,0s-13.8-36.3,0-50.1S47.1,122.4,61,136.2"/>
	<text transform="matrix(1 0 0 1 62.4902 125.4614)" class="st1 st2">Port 1</text>
	<text transform="matrix(1 0 0 1 62.4902 214.019)" class="st1 st2">50</text>
	<line class="st0" x1="407.9" y1="205.5" x2="407.9" y2="196.7"/>
	<line class="st0" x1="407.9" y1="117" x2="407.9" y2="125.8"/>
	<path class="st0" d="M432.9,136.2c13.8,13.8,13.8,36.3,0,50.1c-13.8,13.8-36.3,13.8-50.1,0s-13.8-36.3,0-50.1
		S419.1,122.4,432.9,136.2"/>
	<text transform="matrix(1 0 0 1 315.894 125.4614)" class="st1 st2">Port 2</text>
	<text transform="matrix(1 0 0 1 348.8325 214.019)" class="st1 st2">50</text>
	<line class="st0" x1="186.5" y1="46.1" x2="177.6" y2="46.1"/>
	<line class="st0" x1="195.3" y1="28.4" x2="186.5" y2="46.1"/>
	<line class="st0" x1="213" y1="63.8" x2="195.3" y2="28.4"/>
	<line class="st0" x1="230.7" y1="28.4" x2="213" y2="63.8"/>
	<line class="st0" x1="248.5" y1="63.8" x2="230.7" y2="28.4"/>
	<line class="st0" x1="266.2" y1="46.1" x2="257.3" y2="46.1"/>
	<line class="st0" x1="257.3" y1="46.1" x2="248.5" y2="63.8"/>
	<text transform="matrix(1 0 0 1 214.5146 21.4043)" class="st1 st2">R</text>
	<text transform="matrix(1 0 0 1 197.5459 87.8276)" class="st1 st2">500</text>
	<polygon class="st3" points="20.4,276.4 51.4,276.4 35.9,291.9 	"/>
	<polygon class="st3" points="392.4,276.4 423.4,276.4 407.9,291.9 	"/>
	<text transform="matrix(1 0 0 1 133.3359 276.0083)" class="st4 st1 st2">S21 Logmag = ?</text>
	<text transform="matrix(1 0 0 1 27.0674 169.7397)" class="st4 st1 st2">1</text>
	<text transform="matrix(1 0 0 1 399.0073 169.7397)" class="st4 st1 st2">2</text>
	<line class="st3" x1="177.6" y1="46.1" x2="35.9" y2="46.1"/>
	<line class="st3" x1="407.9" y1="46.1" x2="266.2" y2="46.1"/>
	<line class="st3" x1="35.9" y1="117" x2="35.9" y2="46.1"/>
	<line class="st3" x1="407.9" y1="117" x2="407.9" y2="46.1"/>
	<line class="st3" x1="35.9" y1="276.4" x2="35.9" y2="205.5"/>
	<line class="st3" x1="407.9" y1="276.4" x2="407.9" y2="205.5"/>
</g>
</svg>
