<?xml version="1.0" encoding="utf-8"?>
<!-- Generator: Adobe Illustrator 26.0.3, SVG Export Plug-In . SVG Version: 6.00 Build 0)  -->
<svg version="1.1" id="Layer_1" xmlns="http://www.w3.org/2000/svg" xmlns:xlink="http://www.w3.org/1999/xlink" x="0px" y="0px"
	 viewBox="0 0 400 302.5" style="enable-background:new 0 0 400 302.5;" xml:space="preserve">
<style type="text/css">
	.st0{clip-path:url(#SVGID_00000134250424463379958590000001946485427004956562_);}
	.st1{fill:#AFAFAF;}
	.st2{font-family:'Menlo-Regular';}
	.st3{font-size:6.8627px;}
	.st4{clip-path:url(#SVGID_00000134250424463379958590000001946485427004956562_);fill:none;stroke:#AFAFAF;stroke-miterlimit:10;}
	.st5{fill:#00FF00;}
	.st6{clip-path:url(#SVGID_00000016787240212315759780000012208742869826036903_);fill:none;stroke:#00FF00;stroke-miterlimit:10;}
</style>
<g>
	<defs>
		<rect id="SVGID_1_" y="2.5" width="400" height="300"/>
	</defs>
	<clipPath id="SVGID_00000067954641523963214260000009120004904225506993_">
		<use xlink:href="#SVGID_1_"  style="overflow:visible;"/>
	</clipPath>
	<g style="clip-path:url(#SVGID_00000067954641523963214260000009120004904225506993_);">
		<text transform="matrix(1.7436 0 0 1.7436 57.6328 290.7358)" class="st1 st2 st3">B</text>
	</g>
	<g style="clip-path:url(#SVGID_00000067954641523963214260000009120004904225506993_);">
		<text transform="matrix(1.7436 0 0 1.7436 50.4287 290.7358)" class="st1 st2 st3">d</text>
	</g>
	<g style="clip-path:url(#SVGID_00000067954641523963214260000009120004904225506993_);">
		<text transform="matrix(1.7436 0 0 1.7436 43.2246 290.7358)" class="st1 st2 st3">4</text>
	</g>
	<g style="clip-path:url(#SVGID_00000067954641523963214260000009120004904225506993_);">
		<text transform="matrix(1.7436 0 0 1.7436 36.0205 290.7358)" class="st1 st2 st3">9</text>
	</g>
	<g style="clip-path:url(#SVGID_00000067954641523963214260000009120004904225506993_);">
		<text transform="matrix(1.7436 0 0 1.7436 28.8159 290.7358)" class="st1 st2 st3">5</text>
	</g>
	<g style="clip-path:url(#SVGID_00000067954641523963214260000009120004904225506993_);">
		<text transform="matrix(1.7436 0 0 1.7436 21.6128 290.7358)" class="st1 st2 st3">.</text>
	</g>
	<g style="clip-path:url(#SVGID_00000067954641523963214260000009120004904225506993_);">
		<text transform="matrix(1.7436 0 0 1.7436 14.4087 290.7358)" class="st1 st2 st3">1</text>
	</g>
	<g style="clip-path:url(#SVGID_00000067954641523963214260000009120004904225506993_);">
		<text transform="matrix(1.7436 0 0 1.7436 7.2046 290.7358)" class="st1 st2 st3">2</text>
	</g>
	<g style="clip-path:url(#SVGID_00000067954641523963214260000009120004904225506993_);">
		<text transform="matrix(1.7436 0 0 1.7436 4.882812e-04 290.7358)" class="st1 st2 st3">-</text>
	</g>
	
		<line style="clip-path:url(#SVGID_00000067954641523963214260000009120004904225506993_);fill:none;stroke:#AFAFAF;stroke-miterlimit:10;" x1="73.4" y1="287.8" x2="64.8" y2="287.8"/>
	<g style="clip-path:url(#SVGID_00000067954641523963214260000009120004904225506993_);">
		<text transform="matrix(1.7436 0 0 1.7436 57.6328 221.8643)" class="st1 st2 st3">B</text>
	</g>
	<g style="clip-path:url(#SVGID_00000067954641523963214260000009120004904225506993_);">
		<text transform="matrix(1.7436 0 0 1.7436 50.4287 221.8643)" class="st1 st2 st3">d</text>
	</g>
	<g style="clip-path:url(#SVGID_00000067954641523963214260000009120004904225506993_);">
		<text transform="matrix(1.7436 0 0 1.7436 43.2246 221.8643)" class="st1 st2 st3">9</text>
	</g>
	<g style="clip-path:url(#SVGID_00000067954641523963214260000009120004904225506993_);">
		<text transform="matrix(1.7436 0 0 1.7436 36.0205 221.8643)" class="st1 st2 st3">8</text>
	</g>
	<g style="clip-path:url(#SVGID_00000067954641523963214260000009120004904225506993_);">
		<text transform="matrix(1.7436 0 0 1.7436 28.8159 221.8643)" class="st1 st2 st3">5</text>
	</g>
	<g style="clip-path:url(#SVGID_00000067954641523963214260000009120004904225506993_);">
		<text transform="matrix(1.7436 0 0 1.7436 21.6128 221.8643)" class="st1 st2 st3">.</text>
	</g>
	<g style="clip-path:url(#SVGID_00000067954641523963214260000009120004904225506993_);">
		<text transform="matrix(1.7436 0 0 1.7436 14.4087 221.8643)" class="st1 st2 st3">1</text>
	</g>
	<g style="clip-path:url(#SVGID_00000067954641523963214260000009120004904225506993_);">
		<text transform="matrix(1.7436 0 0 1.7436 7.2046 221.8643)" class="st1 st2 st3">2</text>
	</g>
	<g style="clip-path:url(#SVGID_00000067954641523963214260000009120004904225506993_);">
		<text transform="matrix(1.7436 0 0 1.7436 4.882812e-04 221.8643)" class="st1 st2 st3">-</text>
	</g>
	
		<line style="clip-path:url(#SVGID_00000067954641523963214260000009120004904225506993_);fill:none;stroke:#AFAFAF;stroke-miterlimit:10;" x1="73.4" y1="218.9" x2="64.8" y2="218.9"/>
	<g style="clip-path:url(#SVGID_00000067954641523963214260000009120004904225506993_);">
		<text transform="matrix(1.7436 0 0 1.7436 57.6328 152.9907)" class="st1 st2 st3">B</text>
	</g>
	<g style="clip-path:url(#SVGID_00000067954641523963214260000009120004904225506993_);">
		<text transform="matrix(1.7436 0 0 1.7436 50.4287 152.9907)" class="st1 st2 st3">d</text>
	</g>
	<g style="clip-path:url(#SVGID_00000067954641523963214260000009120004904225506993_);">
		<text transform="matrix(1.7436 0 0 1.7436 43.2246 152.9907)" class="st1 st2 st3">4</text>
	</g>
	<g style="clip-path:url(#SVGID_00000067954641523963214260000009120004904225506993_);">
		<text transform="matrix(1.7436 0 0 1.7436 36.0205 152.9907)" class="st1 st2 st3">8</text>
	</g>
	<g style="clip-path:url(#SVGID_00000067954641523963214260000009120004904225506993_);">
		<text transform="matrix(1.7436 0 0 1.7436 28.8159 152.9907)" class="st1 st2 st3">5</text>
	</g>
	<g style="clip-path:url(#SVGID_00000067954641523963214260000009120004904225506993_);">
		<text transform="matrix(1.7436 0 0 1.7436 21.6128 152.9907)" class="st1 st2 st3">.</text>
	</g>
	<g style="clip-path:url(#SVGID_00000067954641523963214260000009120004904225506993_);">
		<text transform="matrix(1.7436 0 0 1.7436 14.4087 152.9907)" class="st1 st2 st3">1</text>
	</g>
	<g style="clip-path:url(#SVGID_00000067954641523963214260000009120004904225506993_);">
		<text transform="matrix(1.7436 0 0 1.7436 7.2046 152.9907)" class="st1 st2 st3">2</text>
	</g>
	<g style="clip-path:url(#SVGID_00000067954641523963214260000009120004904225506993_);">
		<text transform="matrix(1.7436 0 0 1.7436 4.882812e-04 152.9907)" class="st1 st2 st3">-</text>
	</g>
	
		<line style="clip-path:url(#SVGID_00000067954641523963214260000009120004904225506993_);fill:none;stroke:#AFAFAF;stroke-miterlimit:10;" x1="73.4" y1="150.1" x2="64.8" y2="150.1"/>
	<g style="clip-path:url(#SVGID_00000067954641523963214260000009120004904225506993_);">
		<text transform="matrix(1.7436 0 0 1.7436 57.6328 84.1191)" class="st1 st2 st3">B</text>
	</g>
	<g style="clip-path:url(#SVGID_00000067954641523963214260000009120004904225506993_);">
		<text transform="matrix(1.7436 0 0 1.7436 50.4287 84.1191)" class="st1 st2 st3">d</text>
	</g>
	<g style="clip-path:url(#SVGID_00000067954641523963214260000009120004904225506993_);">
		<text transform="matrix(1.7436 0 0 1.7436 43.2246 84.1191)" class="st1 st2 st3">9</text>
	</g>
	<g style="clip-path:url(#SVGID_00000067954641523963214260000009120004904225506993_);">
		<text transform="matrix(1.7436 0 0 1.7436 36.0205 84.1191)" class="st1 st2 st3">7</text>
	</g>
	<g style="clip-path:url(#SVGID_00000067954641523963214260000009120004904225506993_);">
		<text transform="matrix(1.7436 0 0 1.7436 28.8159 84.1191)" class="st1 st2 st3">5</text>
	</g>
	<g style="clip-path:url(#SVGID_00000067954641523963214260000009120004904225506993_);">
		<text transform="matrix(1.7436 0 0 1.7436 21.6128 84.1191)" class="st1 st2 st3">.</text>
	</g>
	<g style="clip-path:url(#SVGID_00000067954641523963214260000009120004904225506993_);">
		<text transform="matrix(1.7436 0 0 1.7436 14.4087 84.1191)" class="st1 st2 st3">1</text>
	</g>
	<g style="clip-path:url(#SVGID_00000067954641523963214260000009120004904225506993_);">
		<text transform="matrix(1.7436 0 0 1.7436 7.2046 84.1191)" class="st1 st2 st3">2</text>
	</g>
	<g style="clip-path:url(#SVGID_00000067954641523963214260000009120004904225506993_);">
		<text transform="matrix(1.7436 0 0 1.7436 4.882812e-04 84.1191)" class="st1 st2 st3">-</text>
	</g>
	
		<line style="clip-path:url(#SVGID_00000067954641523963214260000009120004904225506993_);fill:none;stroke:#AFAFAF;stroke-miterlimit:10;" x1="73.4" y1="81.2" x2="64.8" y2="81.2"/>
	<g style="clip-path:url(#SVGID_00000067954641523963214260000009120004904225506993_);">
		<text transform="matrix(1.7436 0 0 1.7436 57.6328 15.2461)" class="st1 st2 st3">B</text>
	</g>
	<g style="clip-path:url(#SVGID_00000067954641523963214260000009120004904225506993_);">
		<text transform="matrix(1.7436 0 0 1.7436 50.4287 15.2461)" class="st1 st2 st3">d</text>
	</g>
	<g style="clip-path:url(#SVGID_00000067954641523963214260000009120004904225506993_);">
		<text transform="matrix(1.7436 0 0 1.7436 43.2246 15.2461)" class="st1 st2 st3">4</text>
	</g>
	<g style="clip-path:url(#SVGID_00000067954641523963214260000009120004904225506993_);">
		<text transform="matrix(1.7436 0 0 1.7436 36.0205 15.2461)" class="st1 st2 st3">7</text>
	</g>
	<g style="clip-path:url(#SVGID_00000067954641523963214260000009120004904225506993_);">
		<text transform="matrix(1.7436 0 0 1.7436 28.8159 15.2461)" class="st1 st2 st3">5</text>
	</g>
	<g style="clip-path:url(#SVGID_00000067954641523963214260000009120004904225506993_);">
		<text transform="matrix(1.7436 0 0 1.7436 21.6128 15.2461)" class="st1 st2 st3">.</text>
	</g>
	<g style="clip-path:url(#SVGID_00000067954641523963214260000009120004904225506993_);">
		<text transform="matrix(1.7436 0 0 1.7436 14.4087 15.2461)" class="st1 st2 st3">1</text>
	</g>
	<g style="clip-path:url(#SVGID_00000067954641523963214260000009120004904225506993_);">
		<text transform="matrix(1.7436 0 0 1.7436 7.2046 15.2461)" class="st1 st2 st3">2</text>
	</g>
	<g style="clip-path:url(#SVGID_00000067954641523963214260000009120004904225506993_);">
		<text transform="matrix(1.7436 0 0 1.7436 4.882812e-04 15.2461)" class="st1 st2 st3">-</text>
	</g>
	
		<line style="clip-path:url(#SVGID_00000067954641523963214260000009120004904225506993_);fill:none;stroke:#AFAFAF;stroke-miterlimit:10;" x1="73.4" y1="12.3" x2="64.8" y2="12.3"/>
	
		<rect x="73.4" y="12.3" style="clip-path:url(#SVGID_00000067954641523963214260000009120004904225506993_);fill:none;stroke:#AFAFAF;stroke-miterlimit:10;" width="306.2" height="275.5"/>
	<g style="clip-path:url(#SVGID_00000067954641523963214260000009120004904225506993_);">
		<text transform="matrix(1.7436 0 0 1.7436 204.7632 10.3442)" class="st5 st2 st3">V</text>
	</g>
	<g style="clip-path:url(#SVGID_00000067954641523963214260000009120004904225506993_);">
		<text transform="matrix(1.7436 0 0 1.7436 211.9673 10.3442)" class="st5 st2 st3">(</text>
	</g>
	<g style="clip-path:url(#SVGID_00000067954641523963214260000009120004904225506993_);">
		<text transform="matrix(1.7436 0 0 1.7436 219.1709 10.3442)" class="st5 st2 st3">v</text>
	</g>
	<g style="clip-path:url(#SVGID_00000067954641523963214260000009120004904225506993_);">
		<text transform="matrix(1.7436 0 0 1.7436 226.375 10.3442)" class="st5 st2 st3">r</text>
	</g>
	<g style="clip-path:url(#SVGID_00000067954641523963214260000009120004904225506993_);">
		<text transform="matrix(1.7436 0 0 1.7436 233.5791 10.3442)" class="st5 st2 st3">l</text>
	</g>
	<g style="clip-path:url(#SVGID_00000067954641523963214260000009120004904225506993_);">
		<text transform="matrix(1.7436 0 0 1.7436 240.7832 10.3442)" class="st5 st2 st3">)</text>
	</g>
</g>
<g>
	<defs>
		<rect id="SVGID_00000021815255908100257420000014451628475132787118_" x="72.6" y="12.3" width="307.7" height="275.5"/>
	</defs>
	<clipPath id="SVGID_00000147218282764832315370000016708866142044423568_">
		<use xlink:href="#SVGID_00000021815255908100257420000014451628475132787118_"  style="overflow:visible;"/>
	</clipPath>
	
		<line style="clip-path:url(#SVGID_00000147218282764832315370000016708866142044423568_);fill:none;stroke:#00FF00;stroke-miterlimit:10;" x1="73.4" y1="144.9" x2="379.5" y2="144.9"/>
</g>
</svg>
