<?xml version="1.0" encoding="utf-8"?>
<!-- Generator: Adobe Illustrator 26.0.3, SVG Export Plug-In . SVG Version: 6.00 Build 0)  -->
<svg version="1.1" id="Layer_1" xmlns="http://www.w3.org/2000/svg" xmlns:xlink="http://www.w3.org/1999/xlink" x="0px" y="0px"
	 viewBox="0 0 460.7 309.1" style="enable-background:new 0 0 460.7 309.1;" xml:space="preserve">
<style type="text/css">
	.st0{fill:none;stroke:#0E0E0E;stroke-miterlimit:10;}
	.st1{font-family:'Geneva';}
	.st2{font-size:24.2578px;}
	.st3{fill:none;stroke:#1C1C1C;stroke-miterlimit:10;}
</style>
<g>
	<line class="st0" x1="185.7" y1="46" x2="176.9" y2="46"/>
	<line class="st0" x1="194.6" y1="28.3" x2="185.7" y2="46"/>
	<line class="st0" x1="212.2" y1="63.6" x2="194.6" y2="28.3"/>
	<line class="st0" x1="229.8" y1="28.3" x2="212.2" y2="63.6"/>
	<line class="st0" x1="247.5" y1="63.6" x2="229.8" y2="28.3"/>
	<line class="st0" x1="265.1" y1="46" x2="256.3" y2="46"/>
	<line class="st0" x1="256.3" y1="46" x2="247.5" y2="63.6"/>
	<text transform="matrix(1 0 0 1 213.6757 21.3203)" class="st1 st2">R</text>
	<text transform="matrix(1 0 0 1 196.7734 87.6045)" class="st1 st2">500</text>
	<line class="st0" x1="27" y1="138.6" x2="44.6" y2="138.6"/>
	<line class="st0" x1="27" y1="182.7" x2="44.6" y2="182.7"/>
	<line class="st0" x1="35.8" y1="129.8" x2="35.8" y2="147.4"/>
	<line class="st0" x1="35.8" y1="204.7" x2="35.8" y2="195.9"/>
	<line class="st0" x1="35.8" y1="116.5" x2="35.8" y2="125.4"/>
	<path class="st0" d="M60.7,135.7c13.8,13.8,13.8,36.1,0,49.9c-13.8,13.8-36.1,13.8-49.9,0c-13.8-13.8-13.8-36.1,0-49.9
		C24.6,121.9,47,121.9,60.7,135.7"/>
	<text transform="matrix(1 0 0 1 82.0942 169.1348)" class="st1 st2">V</text>
	<text transform="matrix(1 0 0 1 82.0942 193.3926)" class="st1 st2">AC 1</text>
	<text transform="matrix(1 0 0 1 82.0942 217.6504)" class="st1 st2">Rser=50</text>
	<line class="st0" x1="406.3" y1="195.9" x2="406.3" y2="204.7"/>
	<line class="st0" x1="388.6" y1="187.1" x2="406.3" y2="195.9"/>
	<line class="st0" x1="423.9" y1="169.5" x2="388.6" y2="187.1"/>
	<line class="st0" x1="388.6" y1="151.8" x2="423.9" y2="169.5"/>
	<line class="st0" x1="423.9" y1="134.2" x2="388.6" y2="151.8"/>
	<line class="st0" x1="406.3" y1="116.5" x2="406.3" y2="125.4"/>
	<line class="st0" x1="406.3" y1="125.4" x2="423.9" y2="134.2"/>
	<text transform="matrix(1 0 0 1 428.3183 151.4932)" class="st1 st2">R</text>
	<text transform="matrix(0.583 0 0 0.583 443.0175 159.5713)" class="st1 st2">L</text>
	<text transform="matrix(1 0 0 1 428.3183 191.1875)" class="st1 st2">50</text>
	<polygon class="st3" points="20.3,293 51.2,293 35.8,308.4 	"/>
	<polygon class="st3" points="390.8,293 421.7,293 406.3,308.4 	"/>
	<text transform="matrix(1 0 0 1 383.0214 33.9619)" class="st1 st2">V</text>
	<text transform="matrix(0.583 0 0 0.583 400.6581 42.0396)" class="st1 st2">RL</text>
	<text transform="matrix(1 0 0 1 168.099 257.3447)" class="st1 st2">.ac list {1}</text>
	<text transform="matrix(1 0 0 1 159.2782 292.6289)" class="st1 st2">.net I(RL) V</text>
	<line class="st3" x1="176.9" y1="46" x2="35.8" y2="46"/>
	<line class="st3" x1="406.3" y1="46" x2="265.1" y2="46"/>
	<line class="st3" x1="35.8" y1="116.5" x2="35.8" y2="46"/>
	<line class="st3" x1="406.3" y1="116.5" x2="406.3" y2="46"/>
	<line class="st3" x1="35.8" y1="293" x2="35.8" y2="204.7"/>
	<line class="st3" x1="406.3" y1="293" x2="406.3" y2="204.7"/>
</g>
</svg>
