<?xml version="1.0" encoding="utf-8"?>
<!-- Generator: Adobe Illustrator 26.0.3, SVG Export Plug-In . SVG Version: 6.00 Build 0)  -->
<svg version="1.1" id="Layer_1" xmlns="http://www.w3.org/2000/svg" xmlns:xlink="http://www.w3.org/1999/xlink" x="0px" y="0px"
	 viewBox="0 0 400 302.5" style="enable-background:new 0 0 400 302.5;" xml:space="preserve">
<style type="text/css">
	.st0{fill:#AFAFAF;}
	.st1{font-family:'Menlo-Regular';}
	.st2{font-size:6.8627px;}
	.st3{fill:none;stroke:#AFAFAF;stroke-miterlimit:10;}
	.st4{fill:#00FF00;}
	.st5{clip-path:url(#SVGID_00000047766639055186490970000004827609112040880288_);fill:none;stroke:#00FF00;stroke-miterlimit:10;}
	.st6{fill:#0000FF;}
	.st7{clip-path:url(#SVGID_00000058565894731754102670000016287359478516609429_);fill:none;stroke:#0000FF;stroke-miterlimit:10;}
</style>
<g>
	<text transform="matrix(1.7436 0 0 1.7436 28.8159 290.7363)" class="st0 st1 st2">B</text>
	<text transform="matrix(1.7436 0 0 1.7436 21.6123 290.7363)" class="st0 st1 st2">d</text>
	<text transform="matrix(1.7436 0 0 1.7436 14.4082 290.7363)" class="st0 st1 st2">3</text>
	<text transform="matrix(1.7436 0 0 1.7436 7.2041 290.7363)" class="st0 st1 st2">2</text>
	<text transform="matrix(1.7436 0 0 1.7436 0 290.7363)" class="st0 st1 st2">-</text>
	<line class="st3" x1="44.6" y1="287.8" x2="36" y2="287.8"/>
	<text transform="matrix(1.7436 0 0 1.7436 28.8159 229.5161)" class="st0 st1 st2">B</text>
	<text transform="matrix(1.7436 0 0 1.7436 21.6123 229.5161)" class="st0 st1 st2">d</text>
	<text transform="matrix(1.7436 0 0 1.7436 14.4082 229.5161)" class="st0 st1 st2">1</text>
	<text transform="matrix(1.7436 0 0 1.7436 7.2041 229.5161)" class="st0 st1 st2">2</text>
	<text transform="matrix(1.7436 0 0 1.7436 0 229.5161)" class="st0 st1 st2">-</text>
	<line class="st3" x1="44.6" y1="226.6" x2="36" y2="226.6"/>
	<text transform="matrix(1.7436 0 0 1.7436 28.8159 168.2964)" class="st0 st1 st2">B</text>
	<text transform="matrix(1.7436 0 0 1.7436 21.6123 168.2964)" class="st0 st1 st2">d</text>
	<text transform="matrix(1.7436 0 0 1.7436 14.4082 168.2964)" class="st0 st1 st2">9</text>
	<text transform="matrix(1.7436 0 0 1.7436 7.2041 168.2964)" class="st0 st1 st2">1</text>
	<text transform="matrix(1.7436 0 0 1.7436 0 168.2964)" class="st0 st1 st2">-</text>
	<line class="st3" x1="44.6" y1="165.4" x2="36" y2="165.4"/>
	<text transform="matrix(1.7436 0 0 1.7436 28.8159 107.0762)" class="st0 st1 st2">B</text>
	<text transform="matrix(1.7436 0 0 1.7436 21.6123 107.0762)" class="st0 st1 st2">d</text>
	<text transform="matrix(1.7436 0 0 1.7436 14.4082 107.0762)" class="st0 st1 st2">7</text>
	<text transform="matrix(1.7436 0 0 1.7436 7.2041 107.0762)" class="st0 st1 st2">1</text>
	<text transform="matrix(1.7436 0 0 1.7436 0 107.0762)" class="st0 st1 st2">-</text>
	<line class="st3" x1="44.6" y1="104.1" x2="36" y2="104.1"/>
	<text transform="matrix(1.7436 0 0 1.7436 28.8159 45.856)" class="st0 st1 st2">B</text>
	<text transform="matrix(1.7436 0 0 1.7436 21.6123 45.856)" class="st0 st1 st2">d</text>
	<text transform="matrix(1.7436 0 0 1.7436 14.4082 45.856)" class="st0 st1 st2">5</text>
	<text transform="matrix(1.7436 0 0 1.7436 7.2041 45.856)" class="st0 st1 st2">1</text>
	<text transform="matrix(1.7436 0 0 1.7436 0 45.856)" class="st0 st1 st2">-</text>
	<line class="st3" x1="44.6" y1="42.9" x2="36" y2="42.9"/>
	<rect x="44.6" y="12.3" class="st3" width="335" height="275.5"/>
	<text transform="matrix(1.7436 0 0 1.7436 106.2886 10.3442)" class="st4 st1 st2">S</text>
	<text transform="matrix(1.7436 0 0 1.7436 113.4922 10.3442)" class="st4 st1 st2">2</text>
	<text transform="matrix(1.7436 0 0 1.7436 120.6963 10.3442)" class="st4 st1 st2">1</text>
	<text transform="matrix(1.7436 0 0 1.7436 127.9004 10.3442)" class="st4 st1 st2">(</text>
	<text transform="matrix(1.7436 0 0 1.7436 135.1045 10.3442)" class="st4 st1 st2">v</text>
	<text transform="matrix(1.7436 0 0 1.7436 142.3086 10.3442)" class="st4 st1 st2">)</text>
</g>
<g>
	<defs>
		<rect id="SVGID_1_" x="44.4" y="12.3" width="335.9" height="275.5"/>
	</defs>
	<clipPath id="SVGID_00000116234458615729009270000009214374989058989730_">
		<use xlink:href="#SVGID_1_"  style="overflow:visible;"/>
	</clipPath>
	
		<line style="clip-path:url(#SVGID_00000116234458615729009270000009214374989058989730_);fill:none;stroke:#00FF00;stroke-miterlimit:10;" x1="44.6" y1="60.1" x2="379.5" y2="60.1"/>
</g>
<g>
	<text transform="matrix(1.7436 0 0 1.7436 272.9551 10.3442)" class="st6 st1 st2">V</text>
	<text transform="matrix(1.7436 0 0 1.7436 280.1592 10.3442)" class="st6 st1 st2">(</text>
	<text transform="matrix(1.7436 0 0 1.7436 287.3633 10.3442)" class="st6 st1 st2">v</text>
	<text transform="matrix(1.7436 0 0 1.7436 294.5674 10.3442)" class="st6 st1 st2">r</text>
	<text transform="matrix(1.7436 0 0 1.7436 301.771 10.3442)" class="st6 st1 st2">l</text>
	<text transform="matrix(1.7436 0 0 1.7436 308.9751 10.3442)" class="st6 st1 st2">)</text>
</g>
<g>
	<defs>
		<rect id="SVGID_00000070110099341835545300000017715228224417422508_" x="44.4" y="12.3" width="335.9" height="275.5"/>
	</defs>
	<clipPath id="SVGID_00000055690677844131185560000007316300861620434111_">
		<use xlink:href="#SVGID_00000070110099341835545300000017715228224417422508_"  style="overflow:visible;"/>
	</clipPath>
	
		<line style="clip-path:url(#SVGID_00000055690677844131185560000007316300861620434111_);fill:none;stroke:#0000FF;stroke-miterlimit:10;" x1="44.6" y1="244.4" x2="379.5" y2="244.4"/>
</g>
</svg>
