<?xml version="1.0" encoding="utf-8"?>
<!-- Generator: Adobe Illustrator 26.0.3, SVG Export Plug-In . SVG Version: 6.00 Build 0)  -->
<svg version="1.1" id="Layer_1" xmlns="http://www.w3.org/2000/svg" xmlns:xlink="http://www.w3.org/1999/xlink" x="0px" y="0px"
	 viewBox="0 0 400 305" style="enable-background:new 0 0 400 305;" xml:space="preserve">
<style type="text/css">
	.st0{fill:none;stroke:#AFAFAF;stroke-miterlimit:10;}
	.st1{fill:#AFAFAF;}
	.st2{font-family:'Menlo-Regular';}
	.st3{font-size:6.8627px;}
	.st4{fill:#00FF00;}
	.st5{fill:none;stroke:#00FF00;stroke-miterlimit:1;}
</style>
<g>
	<line class="st0" x1="37.4" y1="287.8" x2="37.4" y2="292.7"/>
	<text transform="matrix(1.7436 0 0 1.7436 26.5571 300.54)" class="st1 st2 st3">0</text>
	<text transform="matrix(1.7436 0 0 1.7436 33.7612 300.54)" class="st1 st2 st3">m</text>
	<text transform="matrix(1.7436 0 0 1.7436 40.9653 300.54)" class="st1 st2 st3">s</text>
	<line class="st0" x1="106.2" y1="287.8" x2="106.2" y2="292.7"/>
	<text transform="matrix(1.7436 0 0 1.7436 91.7949 300.54)" class="st1 st2 st3">2</text>
	<text transform="matrix(1.7436 0 0 1.7436 98.999 300.54)" class="st1 st2 st3">0</text>
	<text transform="matrix(1.7436 0 0 1.7436 106.2026 300.54)" class="st1 st2 st3">m</text>
	<text transform="matrix(1.7436 0 0 1.7436 113.4067 300.54)" class="st1 st2 st3">s</text>
	<line class="st0" x1="175" y1="287.8" x2="175" y2="292.7"/>
	<text transform="matrix(1.7436 0 0 1.7436 160.6353 300.54)" class="st1 st2 st3">4</text>
	<text transform="matrix(1.7436 0 0 1.7436 167.8394 300.54)" class="st1 st2 st3">0</text>
	<text transform="matrix(1.7436 0 0 1.7436 175.0435 300.54)" class="st1 st2 st3">m</text>
	<text transform="matrix(1.7436 0 0 1.7436 182.2476 300.54)" class="st1 st2 st3">s</text>
	<line class="st0" x1="243.9" y1="287.8" x2="243.9" y2="292.7"/>
	<text transform="matrix(1.7436 0 0 1.7436 229.4751 300.54)" class="st1 st2 st3">6</text>
	<text transform="matrix(1.7436 0 0 1.7436 236.6792 300.54)" class="st1 st2 st3">0</text>
	<text transform="matrix(1.7436 0 0 1.7436 243.8828 300.54)" class="st1 st2 st3">m</text>
	<text transform="matrix(1.7436 0 0 1.7436 251.0869 300.54)" class="st1 st2 st3">s</text>
	<line class="st0" x1="312.7" y1="287.8" x2="312.7" y2="292.7"/>
	<text transform="matrix(1.7436 0 0 1.7436 298.3154 300.54)" class="st1 st2 st3">8</text>
	<text transform="matrix(1.7436 0 0 1.7436 305.5195 300.54)" class="st1 st2 st3">0</text>
	<text transform="matrix(1.7436 0 0 1.7436 312.7236 300.54)" class="st1 st2 st3">m</text>
	<text transform="matrix(1.7436 0 0 1.7436 319.9277 300.54)" class="st1 st2 st3">s</text>
	<line class="st0" x1="381.6" y1="287.8" x2="381.6" y2="292.7"/>
	<text transform="matrix(1.7436 0 0 1.7436 363.5527 300.54)" class="st1 st2 st3">1</text>
	<text transform="matrix(1.7436 0 0 1.7436 370.7568 300.54)" class="st1 st2 st3">0</text>
	<text transform="matrix(1.7436 0 0 1.7436 377.9609 300.54)" class="st1 st2 st3">0</text>
	<text transform="matrix(1.7436 0 0 1.7436 385.1646 300.54)" class="st1 st2 st3">m</text>
	<text transform="matrix(1.7436 0 0 1.7436 392.3687 300.54)" class="st1 st2 st3">s</text>
	<text transform="matrix(1.7436 0 0 1.7436 21.6123 290.7363)" class="st1 st2 st3">V</text>
	<text transform="matrix(1.7436 0 0 1.7436 14.4082 290.7363)" class="st1 st2 st3">0</text>
	<text transform="matrix(1.7436 0 0 1.7436 7.2046 290.7363)" class="st1 st2 st3">.</text>
	<text transform="matrix(1.7436 0 0 1.7436 4.882812e-04 290.7363)" class="st1 st2 st3">0</text>
	<line class="st0" x1="37.4" y1="287.8" x2="28.8" y2="287.8"/>
	<text transform="matrix(1.7436 0 0 1.7436 21.6123 254.0039)" class="st1 st2 st3">V</text>
	<text transform="matrix(1.7436 0 0 1.7436 14.4082 254.0039)" class="st1 st2 st3">2</text>
	<text transform="matrix(1.7436 0 0 1.7436 7.2046 254.0039)" class="st1 st2 st3">.</text>
	<text transform="matrix(1.7436 0 0 1.7436 4.882812e-04 254.0039)" class="st1 st2 st3">0</text>
	<line class="st0" x1="37.4" y1="251.1" x2="28.8" y2="251.1"/>
	<text transform="matrix(1.7436 0 0 1.7436 21.6123 217.2715)" class="st1 st2 st3">V</text>
	<text transform="matrix(1.7436 0 0 1.7436 14.4082 217.2715)" class="st1 st2 st3">4</text>
	<text transform="matrix(1.7436 0 0 1.7436 7.2046 217.2715)" class="st1 st2 st3">.</text>
	<text transform="matrix(1.7436 0 0 1.7436 4.882812e-04 217.2715)" class="st1 st2 st3">0</text>
	<line class="st0" x1="37.4" y1="214.3" x2="28.8" y2="214.3"/>
	<text transform="matrix(1.7436 0 0 1.7436 21.6123 180.541)" class="st1 st2 st3">V</text>
	<text transform="matrix(1.7436 0 0 1.7436 14.4082 180.541)" class="st1 st2 st3">6</text>
	<text transform="matrix(1.7436 0 0 1.7436 7.2046 180.541)" class="st1 st2 st3">.</text>
	<text transform="matrix(1.7436 0 0 1.7436 4.882812e-04 180.541)" class="st1 st2 st3">0</text>
	<line class="st0" x1="37.4" y1="177.6" x2="28.8" y2="177.6"/>
	<text transform="matrix(1.7436 0 0 1.7436 21.6123 143.8086)" class="st1 st2 st3">V</text>
	<text transform="matrix(1.7436 0 0 1.7436 14.4082 143.8086)" class="st1 st2 st3">8</text>
	<text transform="matrix(1.7436 0 0 1.7436 7.2046 143.8086)" class="st1 st2 st3">.</text>
	<text transform="matrix(1.7436 0 0 1.7436 4.882812e-04 143.8086)" class="st1 st2 st3">0</text>
	<line class="st0" x1="37.4" y1="140.9" x2="28.8" y2="140.9"/>
	<text transform="matrix(1.7436 0 0 1.7436 21.6123 107.0762)" class="st1 st2 st3">V</text>
	<text transform="matrix(1.7436 0 0 1.7436 14.4082 107.0762)" class="st1 st2 st3">0</text>
	<text transform="matrix(1.7436 0 0 1.7436 7.2046 107.0762)" class="st1 st2 st3">.</text>
	<text transform="matrix(1.7436 0 0 1.7436 4.882812e-04 107.0762)" class="st1 st2 st3">1</text>
	<line class="st0" x1="37.4" y1="104.1" x2="28.8" y2="104.1"/>
	<text transform="matrix(1.7436 0 0 1.7436 21.6123 70.3438)" class="st1 st2 st3">V</text>
	<text transform="matrix(1.7436 0 0 1.7436 14.4082 70.3438)" class="st1 st2 st3">2</text>
	<text transform="matrix(1.7436 0 0 1.7436 7.2046 70.3438)" class="st1 st2 st3">.</text>
	<text transform="matrix(1.7436 0 0 1.7436 4.882812e-04 70.3438)" class="st1 st2 st3">1</text>
	<line class="st0" x1="37.4" y1="67.4" x2="28.8" y2="67.4"/>
	<text transform="matrix(1.7436 0 0 1.7436 21.6123 33.6123)" class="st1 st2 st3">V</text>
	<text transform="matrix(1.7436 0 0 1.7436 14.4082 33.6123)" class="st1 st2 st3">4</text>
	<text transform="matrix(1.7436 0 0 1.7436 7.2046 33.6123)" class="st1 st2 st3">.</text>
	<text transform="matrix(1.7436 0 0 1.7436 4.882812e-04 33.6123)" class="st1 st2 st3">1</text>
	<line class="st0" x1="37.4" y1="30.7" x2="28.8" y2="30.7"/>
	<rect x="37.4" y="12.3" class="st0" width="344.2" height="275.5"/>
	<text transform="matrix(1.7436 0 0 1.7436 183.9443 10.3442)" class="st4 st2 st3">V</text>
	<text transform="matrix(1.7436 0 0 1.7436 191.1479 10.3442)" class="st4 st2 st3">(</text>
	<text transform="matrix(1.7436 0 0 1.7436 198.3521 10.3442)" class="st4 st2 st3">c</text>
	<text transform="matrix(1.7436 0 0 1.7436 205.5562 10.3442)" class="st4 st2 st3">t</text>
	<text transform="matrix(1.7436 0 0 1.7436 212.7603 10.3442)" class="st4 st2 st3">r</text>
	<text transform="matrix(1.7436 0 0 1.7436 219.9648 10.3442)" class="st4 st2 st3">l</text>
	<text transform="matrix(1.7436 0 0 1.7436 227.1685 10.3442)" class="st4 st2 st3">)</text>
</g>
<g>
	<polyline class="st5" points="37.4,150.1 37.4,150.1 37.4,149.9 37.6,149.6 37.7,149.2 37.9,148.8 38,148.6 38.1,148.3 38.2,148 
		38.3,147.7 38.5,147.2 38.8,146.4 39.4,144.8 40,143.3 40.2,142.9 41.4,139.9 42.6,137 42.9,136.1 43.2,135.5 43.9,133.6 
		44.7,131.7 45.5,129.8 46.2,127.9 46.9,126.1 47.6,124.3 48.4,122.6 49.1,120.8 49.4,120 52.7,111.9 55.6,105 55.9,104.2 
		56.2,103.6 59.8,95.1 63,87.8 63.4,87 63.6,86.5 67.7,77.7 71.3,70 71.7,69.3 71.9,68.9 76.4,60 80.7,52 81.1,51.4 81.2,51.2 
		86.3,42.7 91.3,35.2 91.7,34.8 91.8,34.6 97.7,27.2 103.5,21.3 103.8,21 104,20.9 104.8,20.2 105.6,19.5 106.5,18.8 107.3,18.2 
		108.1,17.6 109,17.1 109.8,16.5 110.6,16 117,13.3 117.3,13.2 118.6,12.8 124.6,12.3 130.9,13.6 131.2,13.7 131.6,13.8 132.4,14.2 
		133.3,14.5 134.1,14.9 135,15.4 135.8,15.8 136.7,16.3 137.5,16.8 138.4,17.4 144.4,22.3 144.7,22.6 151,29.4 156.4,36.5 156.7,37 
		162.1,45.3 166.8,53.2 167.1,53.8 171.8,62.6 175.9,70.8 176.2,71.4 180.4,80.3 183.9,88.1 184.3,88.9 188,97.6 191,104.5 
		191.3,105.3 191.6,106 195,114.2 197.8,121 198.1,121.8 198.3,122.2 201.4,129.9 204.1,136.7 204.5,137.5 207.4,144.9 209.6,150.5 
		210,151.3 210.2,152 213,158.9 215,164 215.4,164.9 215.7,165.6 218.3,172.1 220.3,177 220.6,177.9 220.8,178.4 223.3,184.4 
		225.2,189.1 225.5,189.9 225.7,190.3 228.1,196 229.9,200.2 230.2,201 230.4,201.4 232.7,206.7 234.5,210.8 234.8,211.5 
		234.9,211.8 237.1,216.7 238.9,220.5 239.2,221.2 239.3,221.4 	"/>
	<polyline class="st5" points="239.3,221.4 241.4,225.9 243.1,229.4 243.4,230.1 243.5,230.3 245.6,234.5 247.2,237.6 247.5,238.3 
		247.6,238.5 249.7,242.3 251.2,245.2 251.6,245.8 253.6,249.5 255.2,252.2 255.6,252.7 257.5,256 259.1,258.4 259.4,259 
		261.4,261.9 262.9,264.1 263.2,264.5 265.1,267.1 266.6,269.1 267,269.5 268.8,271.8 270.3,273.5 270.6,273.8 272.5,275.8 
		273.9,277.3 274.3,277.6 276.1,279.3 277.6,280.5 277.9,280.7 279.7,282.1 281.1,283.1 281.5,283.3 282.4,283.9 283.3,284.4 
		284,284.8 284.7,285.1 285,285.3 286,285.7 286.8,286.1 287.5,286.3 288.2,286.6 288.6,286.7 289.5,287 290.4,287.2 291.1,287.3 
		291.8,287.5 292.1,287.5 293,287.7 293.9,287.7 294.6,287.8 295.3,287.8 295.6,287.8 296.5,287.8 297.4,287.7 298.1,287.6 
		298.8,287.5 299.2,287.5 300.1,287.3 300.9,287.1 301.7,286.9 302.4,286.7 302.7,286.6 303.6,286.3 304.5,286 305.2,285.7 
		305.9,285.3 306.2,285.2 307.2,284.7 308,284.2 309.5,283.4 309.8,283.1 310.7,282.5 311.6,281.9 313,280.8 313.4,280.5 315.2,279 
		316.6,277.7 317,277.4 318.8,275.5 320.3,273.9 320.6,273.6 322.5,271.4 324,269.6 324.3,269.2 326.2,266.7 327.7,264.7 
		328.1,264.2 330,261.4 331.5,259.1 331.9,258.6 333.8,255.5 335.4,252.9 335.7,252.3 337.7,248.9 339.3,246.1 339.6,245.5 
		341.7,241.6 343.3,238.6 343.6,238 343.7,237.8 345.8,233.7 347.4,230.4 347.8,229.7 347.9,229.5 350,225.1 351.7,221.5 352,220.8 
		352.1,220.5 354.3,215.8 356.1,211.8 356.4,211.1 356.5,210.8 358.8,205.7 360.6,201.5 360.9,200.7 361.1,200.4 363.4,194.9 
		365.3,190.4 365.6,189.6 365.8,189.2 368.2,183.2 370.2,178.5 370.5,177.7 370.7,177.1 	"/>
	<polyline class="st5" points="370.7,177.1 373.3,170.8 375.4,165.4 375.8,164.6 375.9,164.2 378.6,157.5 380.8,151.9 381.2,151.1 
		381.4,150.5 381.5,150.3 381.6,150.1 	"/>
</g>
</svg>
