<?xml version="1.0" encoding="utf-8"?>
<!-- Generator: Adobe Illustrator 26.0.3, SVG Export Plug-In . SVG Version: 6.00 Build 0)  -->
<svg version="1.1" id="Layer_1" xmlns="http://www.w3.org/2000/svg" xmlns:xlink="http://www.w3.org/1999/xlink" x="0px" y="0px"
	 viewBox="0 0 458.1 227.5" style="enable-background:new 0 0 458.1 227.5;" xml:space="preserve">
<style type="text/css">
	.st0{fill:none;stroke:#0E0E0E;stroke-miterlimit:10;}
	.st1{font-family:'Geneva';}
	.st2{font-size:11.6828px;}
	.st3{fill:#F8F8F8;}
	.st4{fill:none;stroke:#4D4D4D;stroke-miterlimit:10;}
	.st5{fill:none;stroke:#1C1C1C;stroke-miterlimit:10;}
	.st6{fill:#161616;}
	.st7{fill:#1C1C1C;}
</style>
<g>
	<line class="st0" x1="412.6" y1="123.7" x2="421.1" y2="123.7"/>
	<line class="st0" x1="412.6" y1="145" x2="421.1" y2="145"/>
	<line class="st0" x1="416.8" y1="119.5" x2="416.8" y2="128"/>
	<line class="st0" x1="416.8" y1="155.6" x2="416.8" y2="151.3"/>
	<line class="st0" x1="416.8" y1="113.1" x2="416.8" y2="117.4"/>
	<path class="st0" d="M428.8,122.3c6.6,6.6,6.6,17.4,0,24c-6.6,6.6-17.4,6.6-24,0c-6.6-6.6-6.6-17.4,0-24
		C411.5,115.7,422.2,115.7,428.8,122.3"/>
	<text transform="matrix(1 0 0 1 429.5757 118.1025)" class="st1 st2">V1</text>
	<text transform="matrix(1 0 0 1 429.5757 160.5859)" class="st1 st2">5V</text>
	<line class="st0" x1="153.4" y1="193.8" x2="153.4" y2="198.1"/>
	<line class="st0" x1="144.9" y1="189.6" x2="153.4" y2="193.8"/>
	<line class="st0" x1="161.9" y1="181.1" x2="144.9" y2="189.6"/>
	<line class="st0" x1="144.9" y1="172.6" x2="161.9" y2="181.1"/>
	<line class="st0" x1="161.9" y1="164.1" x2="144.9" y2="172.6"/>
	<line class="st0" x1="153.4" y1="155.6" x2="153.4" y2="159.8"/>
	<line class="st0" x1="153.4" y1="159.8" x2="161.9" y2="164.1"/>
	<text transform="matrix(1 0 0 1 164.0586 173.3301)" class="st1 st2">R1</text>
	<text transform="matrix(1 0 0 1 164.0586 192.4473)" class="st1 st2">100K</text>
	<line class="st0" x1="357.4" y1="132.2" x2="357.4" y2="147.1"/>
	<line class="st0" x1="357.4" y1="128" x2="357.4" y2="113.1"/>
	<line class="st0" x1="348.9" y1="128" x2="365.9" y2="128"/>
	<line class="st0" x1="348.9" y1="132.2" x2="365.9" y2="132.2"/>
	<text transform="matrix(1 0 0 1 361.6031 122.3506)" class="st1 st2">C1</text>
	<text transform="matrix(1 0 0 1 361.6031 147.8408)" class="st1 st2">0.1µ</text>
	<line class="st0" x1="81.2" y1="147.1" x2="77" y2="147.1"/>
	<line class="st0" x1="85.5" y1="138.6" x2="81.2" y2="147.1"/>
	<line class="st0" x1="94" y1="155.6" x2="85.5" y2="138.6"/>
	<line class="st0" x1="102.5" y1="138.6" x2="94" y2="155.6"/>
	<line class="st0" x1="111" y1="155.6" x2="102.5" y2="138.6"/>
	<line class="st0" x1="119.5" y1="147.1" x2="115.2" y2="147.1"/>
	<line class="st0" x1="115.2" y1="147.1" x2="111" y2="155.6"/>
	<text transform="matrix(1 0 0 1 90.7774 135.5928)" class="st1 st2">R2</text>
	<text transform="matrix(1 0 0 1 82.6573 168.5859)" class="st1 st2">100K</text>
	<line class="st0" x1="13.2" y1="166.2" x2="21.7" y2="166.2"/>
	<line class="st0" x1="13.2" y1="187.4" x2="21.7" y2="187.4"/>
	<line class="st0" x1="17.5" y1="162" x2="17.5" y2="170.5"/>
	<line class="st0" x1="17.5" y1="198.1" x2="17.5" y2="193.8"/>
	<line class="st0" x1="17.5" y1="155.6" x2="17.5" y2="159.8"/>
	<path class="st0" d="M29.5,164.8c6.6,6.6,6.6,17.4,0,24c-6.6,6.6-17.4,6.6-24,0s-6.6-17.4,0-24S22.9,158.2,29.5,164.8"/>
	<text transform="matrix(1 0 0 1 30.2378 203.0684)" class="st1 st2">SINE(.75 .75 10)</text>
	<text transform="matrix(1 0 0 1 30.2378 160.5859)" class="st1 st2">V2</text>
	<rect x="195.9" y="45.1" class="st3" width="119" height="119"/>
	<rect x="195.9" y="45.1" class="st0" width="119" height="119"/>
	<line class="st4" x1="240.5" y1="112.7" x2="255.6" y2="112.7"/>
	<line class="st4" x1="239.3" y1="113.1" x2="255.4" y2="113.1"/>
	<line class="st4" x1="270.3" y1="96.5" x2="255.2" y2="96.5"/>
	<line class="st4" x1="271.5" y1="96.1" x2="255.4" y2="96.1"/>
	<line class="st4" x1="241.2" y1="112.3" x2="255.7" y2="112.3"/>
	<line class="st4" x1="240.5" y1="112.7" x2="255.6" y2="112.7"/>
	<line class="st4" x1="269.6" y1="97" x2="255.1" y2="97"/>
	<line class="st4" x1="270.3" y1="96.5" x2="255.2" y2="96.5"/>
	<line class="st4" x1="241.7" y1="111.8" x2="255.8" y2="111.8"/>
	<line class="st4" x1="241.2" y1="112.3" x2="255.7" y2="112.3"/>
	<line class="st4" x1="269.1" y1="97.4" x2="255" y2="97.4"/>
	<line class="st4" x1="269.6" y1="97" x2="255.1" y2="97"/>
	<line class="st4" x1="242.1" y1="111.4" x2="256" y2="111.4"/>
	<line class="st4" x1="241.7" y1="111.8" x2="255.8" y2="111.8"/>
	<line class="st4" x1="268.7" y1="97.8" x2="254.8" y2="97.8"/>
	<line class="st4" x1="269.1" y1="97.4" x2="255" y2="97.4"/>
	<line class="st4" x1="242.5" y1="111" x2="253.9" y2="111"/>
	<line class="st4" x1="242.1" y1="111.4" x2="256" y2="111.4"/>
	<line class="st4" x1="268.3" y1="98.2" x2="256.8" y2="98.2"/>
	<line class="st4" x1="268.7" y1="97.8" x2="254.8" y2="97.8"/>
	<line class="st4" x1="242.8" y1="110.6" x2="252.1" y2="110.6"/>
	<line class="st4" x1="242.5" y1="111" x2="253.9" y2="111"/>
	<line class="st4" x1="268" y1="98.7" x2="258.7" y2="98.7"/>
	<line class="st4" x1="268.3" y1="98.2" x2="256.8" y2="98.2"/>
	<line class="st4" x1="243.1" y1="110.1" x2="251.3" y2="110.1"/>
	<line class="st4" x1="242.8" y1="110.6" x2="252.1" y2="110.6"/>
	<line class="st4" x1="267.7" y1="99.1" x2="259.5" y2="99.1"/>
	<line class="st4" x1="268" y1="98.7" x2="258.7" y2="98.7"/>
	<line class="st4" x1="243.4" y1="109.7" x2="250.7" y2="109.7"/>
	<line class="st4" x1="243.1" y1="110.1" x2="251.3" y2="110.1"/>
	<line class="st4" x1="267.4" y1="99.5" x2="260.1" y2="99.5"/>
	<line class="st4" x1="267.7" y1="99.1" x2="259.5" y2="99.1"/>
	<line class="st4" x1="243.5" y1="109.3" x2="250.2" y2="109.3"/>
	<line class="st4" x1="243.4" y1="109.7" x2="250.7" y2="109.7"/>
	<line class="st4" x1="267.3" y1="99.9" x2="260.6" y2="99.9"/>
	<line class="st4" x1="267.4" y1="99.5" x2="260.1" y2="99.5"/>
	<line class="st4" x1="243.7" y1="108.9" x2="249.8" y2="108.9"/>
	<line class="st4" x1="243.5" y1="109.3" x2="250.2" y2="109.3"/>
	<line class="st4" x1="267.1" y1="100.4" x2="261" y2="100.4"/>
	<line class="st4" x1="267.3" y1="99.9" x2="260.6" y2="99.9"/>
	<line class="st4" x1="243.9" y1="108.4" x2="249.6" y2="108.4"/>
	<line class="st4" x1="243.7" y1="108.9" x2="249.8" y2="108.9"/>
	<line class="st4" x1="266.9" y1="100.8" x2="261.2" y2="100.8"/>
	<line class="st4" x1="267.1" y1="100.4" x2="261" y2="100.4"/>
	<line class="st4" x1="244.1" y1="108" x2="249.4" y2="108"/>
	<line class="st4" x1="243.9" y1="108.4" x2="249.6" y2="108.4"/>
	<line class="st4" x1="266.7" y1="101.2" x2="261.4" y2="101.2"/>
	<line class="st4" x1="266.9" y1="100.8" x2="261.2" y2="100.8"/>
	<line class="st4" x1="244.3" y1="107.6" x2="249.2" y2="107.6"/>
	<line class="st4" x1="244.1" y1="108" x2="249.4" y2="108"/>
	<line class="st4" x1="266.5" y1="101.6" x2="261.6" y2="101.6"/>
	<line class="st4" x1="266.7" y1="101.2" x2="261.4" y2="101.2"/>
	<line class="st4" x1="244.5" y1="107.2" x2="249.1" y2="107.2"/>
	<line class="st4" x1="244.3" y1="107.6" x2="249.2" y2="107.6"/>
	<line class="st4" x1="266.3" y1="102.1" x2="261.7" y2="102.1"/>
	<line class="st4" x1="266.5" y1="101.6" x2="261.6" y2="101.6"/>
	<line class="st4" x1="244.7" y1="106.7" x2="249" y2="106.7"/>
	<line class="st4" x1="244.5" y1="107.2" x2="249.1" y2="107.2"/>
	<line class="st4" x1="266.1" y1="102.5" x2="261.8" y2="102.5"/>
	<line class="st4" x1="266.3" y1="102.1" x2="261.7" y2="102.1"/>
	<line class="st4" x1="244.9" y1="106.3" x2="249" y2="106.3"/>
	<line class="st4" x1="244.7" y1="106.7" x2="249" y2="106.7"/>
	<line class="st4" x1="265.9" y1="102.9" x2="261.8" y2="102.9"/>
	<line class="st4" x1="266.1" y1="102.5" x2="261.8" y2="102.5"/>
	<line class="st4" x1="245" y1="105.9" x2="248.9" y2="105.9"/>
	<line class="st4" x1="244.9" y1="106.3" x2="249" y2="106.3"/>
	<line class="st4" x1="265.8" y1="103.3" x2="261.9" y2="103.3"/>
	<line class="st4" x1="265.9" y1="102.9" x2="261.8" y2="102.9"/>
	<line class="st4" x1="245.2" y1="105.5" x2="248.9" y2="105.5"/>
	<line class="st4" x1="245" y1="105.9" x2="248.9" y2="105.9"/>
	<line class="st4" x1="265.6" y1="103.8" x2="261.9" y2="103.8"/>
	<line class="st4" x1="265.8" y1="103.3" x2="261.9" y2="103.3"/>
	<line class="st4" x1="245.3" y1="105" x2="248.9" y2="105"/>
	<line class="st4" x1="245.2" y1="105.5" x2="248.9" y2="105.5"/>
	<line class="st4" x1="265.5" y1="104.2" x2="261.9" y2="104.2"/>
	<line class="st4" x1="265.6" y1="103.8" x2="261.9" y2="103.8"/>
	<line class="st4" x1="245.5" y1="104.6" x2="249" y2="104.6"/>
	<line class="st4" x1="245.3" y1="105" x2="248.9" y2="105"/>
	<line class="st4" x1="265.3" y1="104.6" x2="261.8" y2="104.6"/>
	<line class="st4" x1="265.5" y1="104.2" x2="261.9" y2="104.2"/>
	<line class="st4" x1="245.7" y1="104.2" x2="249.1" y2="104.2"/>
	<line class="st4" x1="245.5" y1="104.6" x2="249" y2="104.6"/>
	<line class="st4" x1="265.1" y1="105" x2="261.7" y2="105"/>
	<line class="st4" x1="265.3" y1="104.6" x2="261.8" y2="104.6"/>
	<line class="st4" x1="245.8" y1="103.8" x2="249.2" y2="103.8"/>
	<line class="st4" x1="245.7" y1="104.2" x2="249.1" y2="104.2"/>
	<line class="st4" x1="265" y1="105.5" x2="261.6" y2="105.5"/>
	<line class="st4" x1="265.1" y1="105" x2="261.7" y2="105"/>
	<line class="st4" x1="246" y1="103.3" x2="249.3" y2="103.3"/>
	<line class="st4" x1="245.8" y1="103.8" x2="249.2" y2="103.8"/>
	<line class="st4" x1="264.8" y1="105.9" x2="261.5" y2="105.9"/>
	<line class="st4" x1="265" y1="105.5" x2="261.6" y2="105.5"/>
	<line class="st4" x1="246.2" y1="102.9" x2="249.4" y2="102.9"/>
	<line class="st4" x1="246" y1="103.3" x2="249.3" y2="103.3"/>
	<line class="st4" x1="264.6" y1="106.3" x2="261.4" y2="106.3"/>
	<line class="st4" x1="264.8" y1="105.9" x2="261.5" y2="105.9"/>
	<line class="st4" x1="246.3" y1="102.5" x2="249.5" y2="102.5"/>
	<line class="st4" x1="246.2" y1="102.9" x2="249.4" y2="102.9"/>
	<line class="st4" x1="264.5" y1="106.7" x2="261.2" y2="106.7"/>
	<line class="st4" x1="264.6" y1="106.3" x2="261.4" y2="106.3"/>
	<line class="st4" x1="246.5" y1="102.1" x2="249.7" y2="102.1"/>
	<line class="st4" x1="246.3" y1="102.5" x2="249.5" y2="102.5"/>
	<line class="st4" x1="264.3" y1="107.2" x2="261.1" y2="107.2"/>
	<line class="st4" x1="264.5" y1="106.7" x2="261.2" y2="106.7"/>
	<line class="st4" x1="246.7" y1="101.6" x2="249.8" y2="101.6"/>
	<line class="st4" x1="246.5" y1="102.1" x2="249.7" y2="102.1"/>
	<line class="st4" x1="264.1" y1="107.6" x2="261" y2="107.6"/>
	<line class="st4" x1="264.3" y1="107.2" x2="261.1" y2="107.2"/>
	<line class="st4" x1="246.8" y1="101.2" x2="250" y2="101.2"/>
	<line class="st4" x1="246.7" y1="101.6" x2="249.8" y2="101.6"/>
	<line class="st4" x1="263.9" y1="108" x2="260.8" y2="108"/>
	<line class="st4" x1="264.1" y1="107.6" x2="261" y2="107.6"/>
	<line class="st4" x1="247" y1="100.8" x2="250.1" y2="100.8"/>
	<line class="st4" x1="246.8" y1="101.2" x2="250" y2="101.2"/>
	<line class="st4" x1="263.8" y1="108.4" x2="260.7" y2="108.4"/>
	<line class="st4" x1="263.9" y1="108" x2="260.8" y2="108"/>
	<line class="st4" x1="247.2" y1="100.4" x2="250.2" y2="100.4"/>
	<line class="st4" x1="247" y1="100.8" x2="250.1" y2="100.8"/>
	<line class="st4" x1="263.6" y1="108.9" x2="260.5" y2="108.9"/>
	<line class="st4" x1="263.8" y1="108.4" x2="260.7" y2="108.4"/>
	<line class="st4" x1="247.4" y1="99.9" x2="250.4" y2="99.9"/>
	<line class="st4" x1="247.2" y1="100.4" x2="250.2" y2="100.4"/>
	<line class="st4" x1="263.4" y1="109.3" x2="260.4" y2="109.3"/>
	<line class="st4" x1="263.6" y1="108.9" x2="260.5" y2="108.9"/>
	<line class="st4" x1="247.5" y1="99.5" x2="250.5" y2="99.5"/>
	<line class="st4" x1="247.4" y1="99.9" x2="250.4" y2="99.9"/>
	<line class="st4" x1="263.3" y1="109.7" x2="260.3" y2="109.7"/>
	<line class="st4" x1="263.4" y1="109.3" x2="260.4" y2="109.3"/>
	<line class="st4" x1="247.7" y1="99.1" x2="250.6" y2="99.1"/>
	<line class="st4" x1="247.5" y1="99.5" x2="250.5" y2="99.5"/>
	<line class="st4" x1="263.1" y1="110.1" x2="260.2" y2="110.1"/>
	<line class="st4" x1="263.3" y1="109.7" x2="260.3" y2="109.7"/>
	<line class="st4" x1="247.9" y1="98.7" x2="250.8" y2="98.7"/>
	<line class="st4" x1="247.7" y1="99.1" x2="250.6" y2="99.1"/>
	<line class="st4" x1="262.9" y1="110.6" x2="260" y2="110.6"/>
	<line class="st4" x1="263.1" y1="110.1" x2="260.2" y2="110.1"/>
	<line class="st4" x1="248.1" y1="98.2" x2="250.9" y2="98.2"/>
	<line class="st4" x1="247.9" y1="98.7" x2="250.8" y2="98.7"/>
	<line class="st4" x1="262.7" y1="111" x2="259.8" y2="111"/>
	<line class="st4" x1="262.9" y1="110.6" x2="260" y2="110.6"/>
	<line class="st4" x1="248.4" y1="97.8" x2="251.1" y2="97.8"/>
	<line class="st4" x1="248.1" y1="98.2" x2="250.9" y2="98.2"/>
	<line class="st4" x1="262.4" y1="111.4" x2="259.7" y2="111.4"/>
	<line class="st4" x1="262.7" y1="111" x2="259.8" y2="111"/>
	<line class="st4" x1="248.8" y1="97.4" x2="251.3" y2="97.4"/>
	<line class="st4" x1="248.4" y1="97.8" x2="251.1" y2="97.8"/>
	<line class="st4" x1="262" y1="111.8" x2="259.5" y2="111.8"/>
	<line class="st4" x1="262.4" y1="111.4" x2="259.7" y2="111.4"/>
	<line class="st4" x1="249.1" y1="97" x2="251.4" y2="97"/>
	<line class="st4" x1="248.8" y1="97.4" x2="251.3" y2="97.4"/>
	<line class="st4" x1="261.7" y1="112.3" x2="259.4" y2="112.3"/>
	<line class="st4" x1="262" y1="111.8" x2="259.5" y2="111.8"/>
	<line class="st4" x1="249.8" y1="96.5" x2="251.6" y2="96.5"/>
	<line class="st4" x1="249.1" y1="97" x2="251.4" y2="97"/>
	<line class="st4" x1="260.9" y1="112.7" x2="259.2" y2="112.7"/>
	<line class="st4" x1="261.7" y1="112.3" x2="259.4" y2="112.3"/>
	<line class="st4" x1="251" y1="96.1" x2="251.8" y2="96.1"/>
	<line class="st4" x1="249.8" y1="96.5" x2="251.6" y2="96.5"/>
	<line class="st4" x1="259.8" y1="113.1" x2="259" y2="113.1"/>
	<line class="st4" x1="260.9" y1="112.7" x2="259.2" y2="112.7"/>
	<text transform="matrix(1 0 0 1 200.169 67.123)" class="st1 st2">RST</text>
	<text transform="matrix(1 0 0 1 200.169 109.6064)" class="st1 st2">GND</text>
	<text transform="matrix(1 0 0 1 200.169 152.0889)" class="st1 st2">SET</text>
	<text transform="matrix(1 0 0 1 291.1148 152.0889)" class="st1 st2">DIV</text>
	<text transform="matrix(1 0 0 1 294.3433 109.6064)" class="st1 st2">V+</text>
	<text transform="matrix(1 0 0 1 286.774 67.123)" class="st1 st2">OUT</text>
	<text transform="matrix(1 0 0 1 247.6099 84.1162)" class="st1 st2">U1</text>
	<text transform="matrix(1 0 0 1 228.8707 135.0957)" class="st1 st2">LTC6991</text>
	<polygon class="st5" points="187.4,97.2 187.4,112 180,104.6 	"/>
	<polygon class="st5" points="146,206.6 160.9,206.6 153.4,214 	"/>
	<polygon class="st5" points="349.9,164.1 364.8,164.1 357.4,171.5 	"/>
	<polygon class="st5" points="409.4,164.1 424.3,164.1 416.8,171.5 	"/>
	<text transform="matrix(1 0 0 1 3.001 144.0889)" class="st1 st2">CTRL</text>
	<polygon class="st5" points="10.1,206.6 24.9,206.6 17.5,214 	"/>
	<polygon class="st5" points="323.4,139.7 323.4,154.5 330.8,147.1 	"/>
	<text transform="matrix(1 0 0 1 331.8658 67.123)" class="st1 st2">OUT</text>
	<text transform="matrix(1 0 0 1 348.8589 220.0615)" class="st1 st2">.tran 100m startup</text>
	<text transform="matrix(1 0 0 1 95.5313 10.2681)" class="st6 st1 st2">LTC6991 - TimerBlox: Resettable, Low Frequency Oscillator</text>
	<text transform="matrix(1 0 0 1 138.6685 21.9512)" class="st6 st1 st2">Low Frequency Voltage Controlled Oscillator</text>
	<text transform="matrix(1 0 0 1 131.167 33.6338)" class="st6 st1 st2">Control: 0V to 1.5V     Output: 250Hz to 1kHz</text>
	<line class="st5" x1="195.9" y1="62.1" x2="178.9" y2="62.1"/>
	<line class="st5" x1="331.9" y1="62.1" x2="314.9" y2="62.1"/>
	<line class="st5" x1="195.9" y1="104.6" x2="187.4" y2="104.6"/>
	<line class="st5" x1="357.4" y1="104.6" x2="314.9" y2="104.6"/>
	<line class="st5" x1="416.8" y1="104.6" x2="357.4" y2="104.6"/>
	<line class="st5" x1="357.4" y1="113.1" x2="357.4" y2="104.6"/>
	<line class="st5" x1="416.8" y1="113.1" x2="416.8" y2="104.6"/>
	<line class="st5" x1="77" y1="147.1" x2="17.5" y2="147.1"/>
	<line class="st5" x1="153.4" y1="147.1" x2="119.5" y2="147.1"/>
	<line class="st5" x1="195.9" y1="147.1" x2="153.4" y2="147.1"/>
	<line class="st5" x1="323.4" y1="147.1" x2="314.9" y2="147.1"/>
	<line class="st5" x1="17.5" y1="155.6" x2="17.5" y2="147.1"/>
	<line class="st5" x1="153.4" y1="155.6" x2="153.4" y2="147.1"/>
	<line class="st5" x1="357.4" y1="164.1" x2="357.4" y2="147.1"/>
	<line class="st5" x1="416.8" y1="164.1" x2="416.8" y2="155.6"/>
	<line class="st5" x1="17.5" y1="206.6" x2="17.5" y2="198.1"/>
	<line class="st5" x1="153.4" y1="206.6" x2="153.4" y2="198.1"/>
	<rect x="150.8" y="144.4" class="st7" width="5.3" height="5.3"/>
	<rect x="354.7" y="102" class="st7" width="5.3" height="5.3"/>
</g>
</svg>
